{"asset":{"generator":"Khronos glTF Spline I/O v0.0.1","version":"2.0"},"scenes":[{"nodes":[0]}],"nodes":[{"name":"","children":[1,2]},{"name":"Design Icon final","matrix":[0.7398731161951884,0,0,0,0,0.7399534339123451,0,0,0,0,0.7399442365393477,0,0,8.881784197001252e-16,0,1.0000000000000002],"children":[3,4]},{"name":"Personal Camera","camera":0,"translation":[-2.209076037271604,985.8221816905585,167.7788606169926],"rotation":[-0.6450467169265572,-0.005030176316397931,-0.004246349891876526,0.7641147811821806]},{"name":"Group 3","matrix":[1,0,0,0,0,1,0,0,0,0,1,0,21.590095309599768,9.078415661454596,-1.0661305396825753,1],"children":[5,6]},{"name":"Group 2","matrix":[1,0,0,0,0,1,0,0,0,0,1,0,19.528314674463807,2.5781231975739196,70.53992458050678,1],"children":[7,8,9]},{"name":"Merged Geometry","matrix":[1,0,0,0,0,1,0,0,0,0,1.0000753617068674,0,52.913181907253914,-7.658689077296908,-0.140989789616647,1],"mesh":0},{"name":"Group","matrix":[1,0,0,0,0,1,0,0,0,0,1,0,-24.90978467717106,-1.7763568394002505e-15,0.1279910574866321,1],"children":[10,11,12]},{"name":"Rectangle","matrix":[0.00014867711608660842,-0.002979847393722218,0.30513588465518177,0,1.4572981683482804,0.0012125924764504507,-0.0006982251486366426,0,-0.0008273637447757299,0.9999519733561567,0.009765574753934933,0,-18.694113204777963,1.132654638867804,-0.030103257655667896,1.0000000000000009],"mesh":1},{"name":"Rectangle","matrix":[0.00014867711608525325,-0.002979847393718781,0.3051358846551817,0,0.4779297986337331,0.0003976770785042237,-0.00022898718459518126,0,-0.0008273637447807692,0.9999519733561419,0.009765574753923461,0,48.03003909525619,1.188176023127909,-0.042544389878955244,1.0000000000000009],"mesh":2},{"name":"Rectangle","matrix":[0.00014867711608660842,-0.0029798473937222196,0.30513588465518177,0,1.4572981683482804,0.0012125924764504507,-0.0006982251486366426,0,-0.0008273637447757299,0.9999519733561567,0.009765574753934933,0,0.004136818723882385,-8.059877676758425,-0.04882787376956801,1.0000000000000009],"mesh":3},{"name":"Pointer","matrix":[-0.3981477229899289,1.1680680403354605e-16,-0.39382961481223344,0,4.875903345474017e-17,0.5599999999999999,1.168156067936665e-16,0,0.3937999373767887,4.8759033454742346e-17,-0.39817772808191854,0,19.775146605954554,10.39259271831886,18.974262118958716,0.9999999999999998],"mesh":4,"children":[13,14]},{"name":"Ellipse","matrix":[2.1980759884525782e-16,-0.011517720517899286,0.6598994939489432,0,0.659950280168471,7.326919961508595e-17,-1.465494426140595e-16,0,-5.226718081496219e-34,0.6598497665442608,0.011518588512976815,0,1.4210854715202004e-14,-2.9291982281301663,-7.103239471498244e-15,1],"mesh":5},{"name":"Rectangle","matrix":[0.0004872255834970189,-0.00976517384353962,0.9999522008531603,0,0.9999995390401684,0.0008320822353481768,-0.00047912283288799925,0,-0.0008273637447716029,0.9999519733562008,0.009765574753938692,0,0.00413681872384641,-14.078175528235583,-0.048827873769646035,1.000000000000001],"mesh":6},{"name":"Subtract","matrix":[-4.272599147858481e-15,-0.01599145380146712,0.9161497747063666,0,0.22898286078969643,2.0337763543460634e-16,1.0677325860316836e-15,0,-1.1102230246251563e-15,0.9998476951563912,0.01745240643727852,0,-34.2683339376331,-6.998933866094731,-0.12216684506103784,1],"mesh":7},{"name":"Triangle","matrix":[-1.7763568394002505e-15,-0.017452406437282075,0.9998476951563913,0,1,-1.232595164407831e-32,1.887379141862767e-15,0,1.1102230246251565e-16,0.9998476951563913,0.017452406437282075,0,-3.552713678800501e-15,-6.99893386609474,-0.12216684506097408,1],"mesh":8}],"cameras":[{"type":"orthographic","orthographic":{"xmag":1512,"ymag":944,"zfar":100000,"znear":-100000}}],"meshes":[{"primitives":[{"attributes":{"POSITION":1,"NORMAL":2,"FACEMAP":3,"COLOR":4},"indices":0}]},{"primitives":[{"attributes":{"POSITION":6,"NORMAL":7,"TEXCOORD_0":8},"indices":5}]},{"primitives":[{"attributes":{"POSITION":10,"NORMAL":11,"TEXCOORD_0":12},"indices":9}]},{"primitives":[{"attributes":{"POSITION":14,"NORMAL":15,"TEXCOORD_0":16},"indices":13}]},{"primitives":[{"attributes":{"POSITION":17,"NORMAL":18,"RANDOMCOLOR":19}}]},{"primitives":[{"attributes":{"POSITION":21,"NORMAL":22,"TEXCOORD_0":23},"indices":20}]},{"primitives":[{"attributes":{"POSITION":25,"NORMAL":26,"TEXCOORD_0":27},"indices":24}]},{"primitives":[{"attributes":{"POSITION":29,"NORMAL":30,"TEXCOORD_0":31},"indices":28}]},{"primitives":[{"attributes":{"POSITION":33,"NORMAL":34,"TEXCOORD_0":35},"indices":32}]}],"buffers":[{"uri":"data:application/octet-stream;base64,","byteLength":97024},{"uri":"data:application/octet-stream;base64,","byteLength":70800},{"uri":"data:application/octet-stream;base64,","byteLength":70800},{"uri":"data:application/octet-stream;base64,","byteLength":70800},{"uri":"data:application/octet-stream;base64,","byteLength":72144},{"uri":"data:application/octet-stream;base64,","byteLength":20688},{"uri":"data:application/octet-stream;base64,","byteLength":22416},{"uri":"data:application/octet-stream;base64,","byteLength":53088},{"uri":"data:application/octet-stream;base64,","byteLength":53088}],"bufferViews":[{"buffer":0,"byteOffset":0,"byteLength":15648,"target":34963},{"buffer":0,"byteOffset":15648,"byteLength":23616,"target":34962},{"buffer":0,"byteOffset":39264,"byteLength":23616,"target":34962},{"buffer":0,"byteOffset":62880,"byteLength":2656,"target":34962},{"buffer":0,"byteOffset":65536,"byteLength":31488,"target":34962},{"buffer":1,"byteOffset":0,"byteLength":7824,"target":34963},{"buffer":1,"byteOffset":7824,"byteLength":20992,"target":34962},{"buffer":1,"byteOffset":28816,"byteLength":20992,"target":34962},{"buffer":1,"byteOffset":49808,"byteLength":20992,"target":34962},{"buffer":2,"byteOffset":0,"byteLength":7824,"target":34963},{"buffer":2,"byteOffset":7824,"byteLength":20992,"target":34962},{"buffer":2,"byteOffset":28816,"byteLength":20992,"target":34962},{"buffer":2,"byteOffset":49808,"byteLength":20992,"target":34962},{"buffer":3,"byteOffset":0,"byteLength":7824,"target":34963},{"buffer":3,"byteOffset":7824,"byteLength":20992,"target":34962},{"buffer":3,"byteOffset":28816,"byteLength":20992,"target":34962},{"buffer":3,"byteOffset":49808,"byteLength":20992,"target":34962},{"buffer":4,"byteOffset":0,"byteLength":24048,"target":34962},{"buffer":4,"byteOffset":24048,"byteLength":24048,"target":34962},{"buffer":4,"byteOffset":48096,"byteLength":24048,"target":34962},{"buffer":5,"byteOffset":0,"byteLength":2256,"target":34963},{"buffer":5,"byteOffset":2256,"byteLength":6144,"target":34962},{"buffer":5,"byteOffset":8400,"byteLength":6144,"target":34962},{"buffer":5,"byteOffset":14544,"byteLength":6144,"target":34962},{"buffer":6,"byteOffset":0,"byteLength":2448,"target":34963},{"buffer":6,"byteOffset":2448,"byteLength":6656,"target":34962},{"buffer":6,"byteOffset":9104,"byteLength":6656,"target":34962},{"buffer":6,"byteOffset":15760,"byteLength":6656,"target":34962},{"buffer":7,"byteOffset":0,"byteLength":5856,"target":34963},{"buffer":7,"byteOffset":5856,"byteLength":15744,"target":34962},{"buffer":7,"byteOffset":21600,"byteLength":15744,"target":34962},{"buffer":7,"byteOffset":37344,"byteLength":15744,"target":34962},{"buffer":8,"byteOffset":0,"byteLength":5856,"target":34963},{"buffer":8,"byteOffset":5856,"byteLength":15744,"target":34962},{"buffer":8,"byteOffset":21600,"byteLength":15744,"target":34962},{"buffer":8,"byteOffset":37344,"byteLength":15744,"target":34962}],"accessors":[{"bufferView":0,"byteOffset":0,"componentType":5125,"count":3912,"type":"SCALAR","min":[0],"max":[1967]},{"bufferView":1,"byteOffset":0,"componentType":5126,"count":1968,"type":"VEC3","min":[-22.02507781982422,-6.920923233032227,-50.05362319946289],"max":[22.02507781982422,6.921460151672363,50.05362319946289]},{"bufferView":2,"byteOffset":0,"componentType":5126,"count":1968,"type":"VEC3","min":[-0.9999719858169556,-0.9999520778656006,-0.9999330639839172],"max":[0.9999719262123108,0.9999520778656006,0.9999330639839172]},{"bufferView":3,"byteOffset":0,"componentType":5125,"count":664,"type":"SCALAR","min":[0],"max":[1303]},{"bufferView":4,"byteOffset":0,"componentType":5126,"count":1968,"type":"VEC4","min":[0,0,0,0],"max":[0,0,0,0]},{"bufferView":5,"byteOffset":0,"componentType":5125,"count":1956,"type":"SCALAR","min":[0],"max":[655]},{"bufferView":6,"byteOffset":0,"componentType":5126,"count":656,"type":"VEC3","min":[-23,-33,0],"max":[23,33,4]},{"bufferView":7,"byteOffset":0,"componentType":5126,"count":656,"type":"VEC3","min":[-1,-1,-1],"max":[1,1,1]},{"bufferView":8,"byteOffset":0,"componentType":5126,"count":656,"type":"VEC2","min":[0,0],"max":[1,1]},{"bufferView":9,"byteOffset":0,"componentType":5125,"count":1956,"type":"SCALAR","min":[0],"max":[655]},{"bufferView":10,"byteOffset":0,"componentType":5126,"count":656,"type":"VEC3","min":[-23,-33,0],"max":[23,33,7]},{"bufferView":11,"byteOffset":0,"componentType":5126,"count":656,"type":"VEC3","min":[-1,-1,-1],"max":[1,1,1]},{"bufferView":12,"byteOffset":0,"componentType":5126,"count":656,"type":"VEC2","min":[0,0],"max":[1,1]},{"bufferView":13,"byteOffset":0,"componentType":5125,"count":1956,"type":"SCALAR","min":[0],"max":[655]},{"bufferView":14,"byteOffset":0,"componentType":5126,"count":656,"type":"VEC3","min":[-50,-50,0],"max":[50,50,10]},{"bufferView":15,"byteOffset":0,"componentType":5126,"count":656,"type":"VEC3","min":[-1,-1,-1],"max":[1,1,1]},{"bufferView":16,"byteOffset":0,"componentType":5126,"count":656,"type":"VEC2","min":[0,0],"max":[1,1]},{"bufferView":17,"byteOffset":0,"componentType":5126,"count":2004,"type":"VEC3","min":[-42.941978454589844,-7.527581214904785,-30.408353805541992],"max":[40.17008972167969,7.527581691741943,30.408353805541992]},{"bufferView":18,"byteOffset":0,"componentType":5126,"count":2004,"type":"VEC3","min":[-1,-0.9998477101325989,-0.9998420476913452],"max":[1,0.9998477101325989,0.9998420476913452]},{"bufferView":19,"byteOffset":0,"componentType":5126,"count":2004,"type":"VEC3","min":[0.9977437853813171,0.9977437853813171,0.9977437853813171],"max":[0.9977437853813171,0.9977437853813171,0.9977437853813171]},{"bufferView":20,"byteOffset":0,"componentType":5125,"count":564,"type":"SCALAR","min":[0],"max":[191]},{"bufferView":21,"byteOffset":0,"componentType":5126,"count":192,"type":"VEC3","min":[-50,-50,0],"max":[50,50,7]},{"bufferView":22,"byteOffset":0,"componentType":5126,"count":192,"type":"VEC3","min":[-0.9977446794509888,-0.9977446794509888,-1],"max":[0.9977446794509888,0.9977446794509888,1]},{"bufferView":23,"byteOffset":0,"componentType":5126,"count":192,"type":"VEC2","min":[0,0],"max":[1,1]},{"bufferView":24,"byteOffset":0,"componentType":5125,"count":612,"type":"SCALAR","min":[0],"max":[207]},{"bufferView":25,"byteOffset":0,"componentType":5126,"count":208,"type":"VEC3","min":[-50,-50,0],"max":[50,50,10]},{"bufferView":26,"byteOffset":0,"componentType":5126,"count":208,"type":"VEC3","min":[-1,-1,-1],"max":[1,1,1]},{"bufferView":27,"byteOffset":0,"componentType":5126,"count":208,"type":"VEC2","min":[0,0],"max":[1,1]},{"bufferView":28,"byteOffset":0,"componentType":5125,"count":1464,"type":"SCALAR","min":[0],"max":[491]},{"bufferView":29,"byteOffset":0,"componentType":5126,"count":492,"type":"VEC3","min":[-30.290800094604492,-42.941978454589844,0],"max":[30.290800094604492,40.17008972167969,14]},{"bufferView":30,"byteOffset":0,"componentType":5126,"count":492,"type":"VEC3","min":[-0.9997751712799072,-1,-1],"max":[0.9997751712799072,0.999583899974823,1]},{"bufferView":31,"byteOffset":0,"componentType":5126,"count":492,"type":"VEC2","min":[0,0],"max":[1,1]},{"bufferView":32,"byteOffset":0,"componentType":5125,"count":1464,"type":"SCALAR","min":[0],"max":[491]},{"bufferView":33,"byteOffset":0,"componentType":5126,"count":492,"type":"VEC3","min":[-30.290800094604492,-42.941978454589844,0],"max":[30.290800094604492,40.17008972167969,14]},{"bufferView":34,"byteOffset":0,"componentType":5126,"count":492,"type":"VEC3","min":[-0.9997751712799072,-1,-1],"max":[0.9997751712799072,0.999583899974823,1]},{"bufferView":35,"byteOffset":0,"componentType":5126,"count":492,"type":"VEC2","min":[0,0],"max":[1,1]}],"extensions":{"KHR_lights_punctual":{"lights":[]}},"extensionsUsed":["KHR_lights_punctual"]}