{"asset":{"generator":"Khronos glTF Spline I/O v0.0.1","version":"2.0"},"scenes":[{"nodes":[0]}],"nodes":[{"name":"","children":[1,2]},{"name":"","camera":0,"translation":[35.88711435689909,94.92458949242732,15.420595010351853],"rotation":[-0.4492769359027662,0.4684824989883156,0.3013393801538128,0.6984761706572388]},{"name":"Optimize Icon final","matrix":[0.01,0,0,0,0,-4.7127405191638164e-7,-0.009999999988895038,0,0,0.009999999988895038,-4.7127405191638164e-7,0,0,0.00008992001414043216,0.0008627038332766901,1],"children":[3,4,5]},{"name":"Big Slice low","matrix":[0.8008159647953135,-8.890843226031658e-17,2.778388508134893e-18,0,-8.887057237811506e-17,0.8004749532925632,1.1104057587443408e-17,0,-2.777205386816132e-18,0,0.8004749532925737,0,5.700013624705707,-0.7739682648516252,8.853209697835942,0.9999999999999999],"mesh":0},{"name":"Med Slice Top Right","matrix":[-0.04306006192529733,0.7979228365043077,0.03035803723497165,0,-0.822751819088047,-0.04440256947057303,0.0010621857013855508,0,0.004109248015028551,-0.04662320451623702,1.2312559311637161,0,2.591630139830908,-3.4555129460752423,13.518942334593659,0.9999999999999997],"mesh":1},{"name":"Merged Geometry 2","matrix":[0.8333333333333335,0,0,0,0,-0.00003927283765969849,0.8333333324079201,0,7.663682439959935e-33,-0.8333333324079201,-0.000039272837659698474,0,3.1171034038497694,9.087352885692258,20.574580363741504,0.9999999999999998],"mesh":2}],"cameras":[{"type":"perspective","perspective":{"aspectRatio":1.6016949152542372,"yfov":0.7853981633974483,"znear":5,"zfar":100000}}],"meshes":[{"primitives":[{"attributes":{"POSITION":1,"NORMAL":2,"FACEMAP":3,"COLOR":4},"indices":0}]},{"primitives":[{"attributes":{"POSITION":6,"NORMAL":7,"FACEMAP":8,"COLOR":9},"indices":5}]},{"primitives":[{"attributes":{"POSITION":11,"NORMAL":12,"FACEMAP":13,"COLOR":14},"indices":10}]}],"buffers":[{"uri":"data:application/octet-stream;base64,","byteLength":30176},{"uri":"data:application/octet-stream;base64,","byteLength":16536},{"uri":"data:application/octet-stream;base64,","byteLength":86928}],"bufferViews":[{"buffer":0,"byteOffset":0,"byteLength":3552,"target":34963},{"buffer":0,"byteOffset":3552,"byteLength":7584,"target":34962},{"buffer":0,"byteOffset":11136,"byteLength":7584,"target":34962},{"buffer":0,"byteOffset":18720,"byteLength":1344,"target":34962},{"buffer":0,"byteOffset":20064,"byteLength":10112,"target":34962},{"buffer":1,"byteOffset":0,"byteLength":1968,"target":34963},{"buffer":1,"byteOffset":1968,"byteLength":4152,"target":34962},{"buffer":1,"byteOffset":6120,"byteLength":4152,"target":34962},{"buffer":1,"byteOffset":10272,"byteLength":728,"target":34962},{"buffer":1,"byteOffset":11000,"byteLength":5536,"target":34962},{"buffer":2,"byteOffset":0,"byteLength":11064,"target":34963},{"buffer":2,"byteOffset":11064,"byteLength":21696,"target":34962},{"buffer":2,"byteOffset":32760,"byteLength":21696,"target":34962},{"buffer":2,"byteOffset":54456,"byteLength":3544,"target":34962},{"buffer":2,"byteOffset":58000,"byteLength":28928,"target":34962}],"accessors":[{"bufferView":0,"byteOffset":0,"componentType":5125,"count":888,"type":"SCALAR","min":[0],"max":[631]},{"bufferView":1,"byteOffset":0,"componentType":5126,"count":632,"type":"VEC3","min":[-37.114383697509766,-45.9494743347168,-12.5],"max":[40.752384185791016,-11.901737213134766,12.5]},{"bufferView":2,"byteOffset":0,"componentType":5126,"count":632,"type":"VEC3","min":[-0.8008503913879395,-0.9999890923500061,-1],"max":[0.7400240898132324,0.9999997019767761,1]},{"bufferView":3,"byteOffset":0,"componentType":5125,"count":336,"type":"SCALAR","min":[0],"max":[295]},{"bufferView":4,"byteOffset":0,"componentType":5126,"count":632,"type":"VEC4","min":[0,0,0,0],"max":[0,0,0,0]},{"bufferView":5,"byteOffset":0,"componentType":5125,"count":492,"type":"SCALAR","min":[0],"max":[345]},{"bufferView":6,"byteOffset":0,"componentType":5126,"count":346,"type":"VEC3","min":[-27.533367156982422,-50,-12.5],"max":[27.533367156982422,-18.772748947143555,12.5]},{"bufferView":7,"byteOffset":0,"componentType":5126,"count":346,"type":"VEC3","min":[-0.8346095085144043,-0.999993622303009,-1],"max":[0.8346094489097595,0.9999575614929199,1]},{"bufferView":8,"byteOffset":0,"componentType":5125,"count":182,"type":"SCALAR","min":[0],"max":[163]},{"bufferView":9,"byteOffset":0,"componentType":5126,"count":346,"type":"VEC4","min":[0,0,0,0],"max":[0,0,0,0]},{"bufferView":10,"byteOffset":0,"componentType":5125,"count":2766,"type":"SCALAR","min":[0],"max":[1807]},{"bufferView":11,"byteOffset":0,"componentType":5126,"count":1808,"type":"VEC3","min":[-41.01010513305664,-27.693784713745117,-32.586578369140625],"max":[38.59206771850586,27.693950653076172,37.97551345825195]},{"bufferView":12,"byteOffset":0,"componentType":5126,"count":1808,"type":"VEC3","min":[null,null,null],"max":[null,null,null]},{"bufferView":13,"byteOffset":0,"componentType":5125,"count":886,"type":"SCALAR","min":[0],"max":[921]},{"bufferView":14,"byteOffset":0,"componentType":5126,"count":1808,"type":"VEC4","min":[0,0,0,0],"max":[0,0,0,0]}],"extensions":{"KHR_lights_punctual":{"lights":[]}},"extensionsUsed":["KHR_lights_punctual"]}