{"asset":{"version":"2.0","generator":"THREE.GLTFExporter"},"scenes":[{"name":"AuxScene","nodes":[3]}],"scene":0,"nodes":[{"name":"Cylinder015","mesh":0},{"name":"Cylinder015_1","mesh":1},{"matrix":[1,0,0,0,0,-1.3435885648505064e-7,0.9999999657714511,0,0,-0.9999999657714511,-1.3435885648505064e-7,0,0,0,0,1],"name":"target","extras":{"name":"target"},"children":[0,1]},{"name":"Scene","children":[2]}],"bufferViews":[{"buffer":0,"byteOffset":0,"byteLength":1152,"target":34962,"byteStride":12},{"buffer":0,"byteOffset":1152,"byteLength":1152,"target":34962,"byteStride":12},{"buffer":0,"byteOffset":2304,"byteLength":768,"target":34962,"byteStride":8},{"buffer":0,"byteOffset":3072,"byteLength":564,"target":34963},{"buffer":0,"byteOffset":3636,"byteLength":7944,"target":34962,"byteStride":12},{"buffer":0,"byteOffset":11580,"byteLength":7944,"target":34962,"byteStride":12},{"buffer":0,"byteOffset":19524,"byteLength":5296,"target":34962,"byteStride":8},{"buffer":0,"byteOffset":24820,"byteLength":3636,"target":34963}],"buffers":[{"byteLength":28456,"uri":"data:application/octet-stream;base64,"}],"accessors":[{"bufferView":0,"componentType":5126,"count":96,"max":[0.5109304189682007,0.2188355028629303,0.5108977556228638],"min":[-0.5109304189682007,0.21868261694908142,-0.5109633207321167],"type":"VEC3"},{"bufferView":1,"componentType":5126,"count":96,"max":[0.0000018766623952615191,1,-0.00014762641512788832],"min":[-0.000001968126753126853,0.9999999403953552,-0.00015176215674728155],"type":"VEC3"},{"bufferView":2,"componentType":5126,"count":96,"max":[0.9357182383537292,0.935718297958374],"min":[0.5642815232276917,0.5642814636230469],"type":"VEC2"},{"bufferView":3,"componentType":5123,"count":282,"max":[95],"min":[0],"type":"SCALAR"},{"bufferView":4,"componentType":5126,"count":662,"max":[0.6844669580459595,0.21885386109352112,0.6844919919967651],"min":[-0.6844669580459595,-0.21885357797145844,-0.6844922304153442],"type":"VEC3"},{"bufferView":5,"componentType":5126,"count":662,"max":[0.9915043115615845,1,0.9915242195129395],"min":[-0.9915042519569397,-0.9904676079750061,-0.9915236830711365],"type":"VEC3"},{"bufferView":6,"componentType":5126,"count":662,"max":[1,0.9811916351318359],"min":[0,0],"type":"VEC2"},{"bufferView":7,"componentType":5123,"count":1818,"max":[661],"min":[0],"type":"SCALAR"}],"materials":[{"pbrMetallicRoughness":{"baseColorFactor":[0.1568627450980392,0.5215686274509804,0.9647058823529412,1],"metallicFactor":0,"roughnessFactor":0.2},"alphaMode":"BLEND","name":"Red.024"},{"pbrMetallicRoughness":{"baseColorFactor":[0.5803921568627451,0.7294117647058823,0.9137254901960784,1],"metallicFactor":0,"roughnessFactor":0.5},"alphaMode":"BLEND","name":"White.024"}],"meshes":[{"primitives":[{"mode":4,"attributes":{"POSITION":0,"NORMAL":1,"TEXCOORD_0":2},"indices":3,"material":0}]},{"primitives":[{"mode":4,"attributes":{"POSITION":4,"NORMAL":5,"TEXCOORD_0":6},"indices":7,"material":1}]}]}